<?xml version="1.0" encoding="UTF-8"?>
<svg id="_图层_1" data-name="图层 1" xmlns="http://www.w3.org/2000/svg" viewBox="0 0 111.29 124.65">
  <path d="m111.29,62.34c0,7.99,0,15.97,0,23.96,0,5.39-2.29,9.33-7.03,12.03-9.64,5.48-19.19,11.1-28.78,16.67-4.6,2.67-9.14,5.46-13.81,7.99-4.13,2.24-8.45,2.22-12.56-.1-5.51-3.1-10.94-6.36-16.4-9.55-.23-.13-.47-.27-.66-.45-.54-.53-.35-1.2.51-1.7,2.14-1.26,4.29-2.51,6.43-3.76,3.04-1.77,6.07-3.55,9.12-5.31,1.23-.71,2.49-.56,3.77-.08.86.32,1.71.66,2.6.89,1.25.32,2.47.11,3.59-.54,8.95-5.19,17.9-10.38,26.85-15.58,1.48-.86,2.97-1.71,4.44-2.59,1.41-.84,2.08-2.15,2.22-3.74.08-.91.04-1.83.04-2.75,0-10.77-.02-21.53.04-32.3.02-2.78-1.17-4.6-3.53-5.94-6.71-3.81-13.37-7.71-20.05-11.57-1.06-.61-1.34-1.28-.04-2.01,4.68-2.64,9.32-5.38,13.97-8.08,1-.58,1.99-1.16,2.99-1.74.68-.4,1.34-.35,2.01.04,5.92,3.46,11.85,6.9,17.77,10.36,4.44,2.6,6.48,6.56,6.49,11.63.01,8.08,0,16.15,0,24.23h0Z" style="stroke-width: 0px;"/>
  <path d="m19.48,73.91c0,9.64,0,19.29,0,28.93,0,.3.01.59-.01.89-.08,1.11-.64,1.44-1.59.9-4.17-2.4-8.4-4.71-12.48-7.26C1.8,95.11.05,91.63.03,87.42c-.05-15.09-.03-30.17-.01-45.26,0-2.16-.08-4.33.17-6.46.49-4.32,2.92-7.35,6.66-9.46,3.89-2.19,7.72-4.48,11.58-6.71,5.19-3.01,10.39-6,15.58-9.01,3.43-1.99,6.8-4.07,10.27-5.97,2.56-1.4,4.9-3.22,7.77-4.03,3.62-1.02,7.05-.48,10.27,1.34,4.89,2.76,9.73,5.61,14.58,8.43.74.43,1.47.89,2.2,1.34.67.41.66.71-.06,1.12-3.2,1.84-6.4,3.69-9.61,5.52-2.18,1.25-4.37,2.47-6.54,3.75-1.12.66-2.27.76-3.49.38-.25-.08-.52-.14-.76-.25-2.56-1.23-4.85-.66-7.21.75-6.17,3.68-12.42,7.22-18.63,10.82-3.5,2.03-6.98,4.1-10.48,6.14-1.88,1.09-2.83,2.69-2.83,4.87,0,9.73,0,19.46,0,29.19h-.01Z" style="stroke-width: 0px;"/>
  <path d="m30.34,76.34c0-8.34,0-16.68.01-25.03,0-.79-.04-1.66.27-2.35.37-.85.92-1.84,1.68-2.28,6.97-4.12,14.01-8.13,21.02-12.2,1.6-.93,3.12-.85,4.69.07,3.44,2.01,6.91,3.98,10.37,5.98,3.2,1.84,6.38,3.74,9.61,5.53,1.94,1.07,2.85,2.59,2.83,4.81-.04,7.63-.03,15.26,0,22.9,0,2.11-.9,3.56-2.72,4.6-6.18,3.54-12.33,7.15-18.49,10.72-6.11,3.55-12.23,7.08-18.34,10.63-2.56,1.48-5.1,2.99-7.66,4.47-1.96,1.14-3.26.37-3.27-1.94,0-8.64,0-17.28,0-25.91h0Zm12.09-6.94h0c0,4.17,0,8.34,0,12.51,0,.7.02,1.37.73,1.78.74.42,1.36.09,1.99-.28,2.86-1.67,5.72-3.33,8.58-5,4.42-2.57,8.83-5.16,13.27-7.7,1.21-.69,1.75-1.61,1.73-3.02-.06-3.73-.03-7.45,0-11.18,0-.95-.35-1.67-1.16-2.14-3.57-2.1-7.15-4.17-10.71-6.27-.91-.54-1.78-.52-2.67.03-.78.48-1.57.95-2.36,1.4-2.61,1.5-5.23,3-7.84,4.5-1.08.62-1.56,1.53-1.56,2.78.02,4.2,0,8.4,0,12.6Z" style="fill: #3a2f2e; stroke-width: 0px;"/>
</svg>